<svg width="204" height="71" viewBox="0 0 204 71" fill="none" xmlns="http://www.w3.org/2000/svg">
<path d="M7.93774 17.3638C7.93774 12.1579 12.1579 7.93774 17.3638 7.93774L187.728 0C192.934 0 204 7.8914 204 13.0973V60.7237C204 65.9296 199.78 70.1498 194.574 70.1498H11.9066C6.70074 70.1498 0 59.1825 0 53.9767L7.93774 17.3638Z" fill="#063B27"/>
<path fill-rule="evenodd" clip-rule="evenodd" d="M194.574 8.88011H17.3636C12.6783 8.88011 8.88011 12.6783 8.88011 17.3636V60.7235C8.88011 65.4088 12.6783 69.207 17.3636 69.207H194.574C199.259 69.207 203.057 65.4088 203.057 60.7235V17.3636C203.057 12.6783 199.259 8.88011 194.574 8.88011ZM17.3636 7.9375C12.1577 7.9375 7.9375 12.1577 7.9375 17.3636V60.7235C7.9375 65.9294 12.1577 70.1496 17.3636 70.1496H194.574C199.78 70.1496 204 65.9294 204 60.7235V17.3636C204 12.1577 199.78 7.9375 194.574 7.9375H17.3636Z" fill="#063B27"/>
<rect x="0.471303" y="0.471303" width="195.12" height="61.2695" rx="8.95477" fill="white" stroke="#063B27" stroke-width="0.942607"/>
<circle cx="34.8768" cy="31.1063" r="19.7947" fill="#063B27"/>
<path d="M34.8742 24.0371C30.9718 24.0371 27.8047 27.2043 27.8047 31.1067C27.8047 35.0091 30.9718 38.1762 34.8742 38.1762C38.7766 38.1762 41.9438 35.0091 41.9438 31.1067" stroke="#CFFF92" stroke-width="1.06043" stroke-miterlimit="10" stroke-linecap="round" stroke-linejoin="round"/>
<path d="M35.582 30.4005L41.3791 24.6035" stroke="#CFFF92" stroke-width="1.06043" stroke-linecap="round" stroke-linejoin="round"/>
<path d="M41.9458 27.4517V24.0371H38.5312" stroke="#CFFF92" stroke-width="1.06043" stroke-linecap="round" stroke-linejoin="round"/>
<path d="M68.2486 26.1963L72.7957 17.1987V17.1237H67.4988V15.2278H75.195V17.1505L70.6427 26.1963H68.2486ZM76.2541 26.3355C75.9006 26.3355 75.5971 26.2106 75.3436 25.9606C75.0937 25.7071 74.9687 25.4036 74.9687 25.0502C74.9687 24.7003 75.0937 24.4003 75.3436 24.1504C75.5971 23.9005 75.9006 23.7755 76.2541 23.7755C76.5969 23.7755 76.8968 23.9005 77.1539 24.1504C77.4109 24.4003 77.5395 24.7003 77.5395 25.0502C77.5395 25.2858 77.4788 25.5018 77.3574 25.6982C77.2396 25.891 77.0842 26.0463 76.8914 26.1642C76.6986 26.2784 76.4862 26.3355 76.2541 26.3355ZM83.0411 26.3462C82.2164 26.3462 81.4826 26.2124 80.8399 25.9446C80.2008 25.6732 79.6992 25.3037 79.335 24.8359C78.9708 24.3682 78.7887 23.838 78.7887 23.2453C78.7887 22.7883 78.8922 22.3687 79.0993 21.9867C79.31 21.6011 79.5956 21.2815 79.9563 21.028C80.3169 20.7709 80.7203 20.6067 81.1666 20.5353V20.4603C80.5811 20.3425 80.1062 20.0586 79.742 19.6088C79.3778 19.1553 79.1957 18.6287 79.1957 18.0288C79.1957 17.4611 79.3618 16.9559 79.6938 16.5131C80.0259 16.0668 80.4811 15.7169 81.0595 15.4634C81.6415 15.2063 82.3021 15.0778 83.0411 15.0778C83.7802 15.0778 84.439 15.2063 85.0174 15.4634C85.5994 15.7205 86.0564 16.0722 86.3885 16.5185C86.7205 16.9612 86.8883 17.4647 86.8919 18.0288C86.8883 18.6322 86.7027 19.1589 86.3349 19.6088C85.9672 20.0586 85.4959 20.3425 84.921 20.4603V20.5353C85.3602 20.6067 85.7583 20.7709 86.1153 21.028C86.4759 21.2815 86.7616 21.6011 86.9722 21.9867C87.1865 22.3687 87.2954 22.7883 87.2989 23.2453C87.2954 23.838 87.1115 24.3682 86.7473 24.8359C86.3831 25.3037 85.8797 25.6732 85.237 25.9446C84.5979 26.2124 83.8659 26.3462 83.0411 26.3462ZM83.0411 24.6431C83.4089 24.6431 83.7302 24.5771 84.0052 24.445C84.2801 24.3093 84.4943 24.1236 84.6479 23.888C84.805 23.6488 84.8835 23.3738 84.8835 23.0632C84.8835 22.7454 84.8032 22.4651 84.6425 22.2223C84.4818 21.976 84.264 21.7832 83.9891 21.6439C83.7142 21.5011 83.3982 21.4297 83.0411 21.4297C82.6877 21.4297 82.3717 21.5011 82.0932 21.6439C81.8147 21.7832 81.5951 21.976 81.4344 22.2223C81.2773 22.4651 81.1988 22.7454 81.1988 23.0632C81.1988 23.3738 81.2755 23.6488 81.4291 23.888C81.5826 24.1236 81.7986 24.3093 82.0771 24.445C82.3556 24.5771 82.677 24.6431 83.0411 24.6431ZM83.0411 19.7426C83.3482 19.7426 83.6214 19.6802 83.8606 19.5552C84.0998 19.4302 84.2872 19.2571 84.4229 19.0357C84.5586 18.8143 84.6264 18.559 84.6264 18.2698C84.6264 17.9842 84.5586 17.7342 84.4229 17.52C84.2872 17.3022 84.1016 17.1326 83.8659 17.0112C83.6303 16.8863 83.3553 16.8238 83.0411 16.8238C82.7305 16.8238 82.4556 16.8863 82.2164 17.0112C81.9771 17.1326 81.7897 17.3022 81.654 17.52C81.5219 17.7342 81.4559 17.9842 81.4559 18.2698C81.4559 18.559 81.5237 18.8143 81.6594 19.0357C81.795 19.2571 81.9825 19.4302 82.2217 19.5552C82.4609 19.6802 82.7341 19.7426 83.0411 19.7426Z" fill="#063B27"/>
<path d="M68.088 46.8184V37.2209H73.8802V38.2519H69.2502V41.4948H73.5803V42.5257H69.2502V45.7874H73.9552V46.8184H68.088ZM76.9309 42.4883V46.8184H75.825V39.6203H76.8934V40.745H76.9872C77.1559 40.3794 77.4121 40.0858 77.7557 39.864C78.0994 39.639 78.543 39.5265 79.0866 39.5265C79.574 39.5265 80.0004 39.6265 80.366 39.8265C80.7315 40.0233 81.0158 40.3232 81.2189 40.7262C81.4219 41.1261 81.5235 41.6322 81.5235 42.2446V46.8184H80.4175V42.3196C80.4175 41.7541 80.2707 41.3136 79.977 40.998C79.6833 40.6794 79.2803 40.52 78.768 40.52C78.4149 40.52 78.0994 40.5966 77.8213 40.7497C77.5464 40.9027 77.3293 41.1261 77.1699 41.4198C77.0106 41.7135 76.9309 42.0696 76.9309 42.4883ZM86.4499 49.6676C85.9157 49.6676 85.4564 49.5989 85.0721 49.4614C84.6879 49.3271 84.3676 49.149 84.1115 48.9272C83.8584 48.7085 83.6569 48.4742 83.5069 48.2242L84.3879 47.6057C84.4879 47.7369 84.6144 47.8868 84.7675 48.0555C84.9206 48.2274 85.1299 48.3758 85.3955 48.5007C85.6642 48.6288 86.0156 48.6929 86.4499 48.6929C87.031 48.6929 87.5106 48.5523 87.8886 48.2711C88.2666 47.9899 88.4556 47.5494 88.4556 46.9496V45.4875H88.3619C88.2807 45.6187 88.1651 45.7811 88.0151 45.9748C87.8683 46.1654 87.6558 46.3357 87.3778 46.4856C87.1028 46.6325 86.7311 46.7059 86.2624 46.7059C85.6814 46.7059 85.1596 46.5684 84.6972 46.2935C84.238 46.0186 83.874 45.6187 83.6053 45.0938C83.3398 44.569 83.207 43.9316 83.207 43.1818C83.207 42.4445 83.3367 41.8025 83.596 41.2558C83.8553 40.7059 84.2161 40.281 84.6785 39.9811C85.1409 39.6781 85.6751 39.5265 86.2812 39.5265C86.7498 39.5265 87.1216 39.6046 87.3965 39.7609C87.6746 39.9139 87.887 40.0889 88.0339 40.2857C88.1838 40.4794 88.2994 40.6387 88.3806 40.7637H88.4931V39.6203H89.5616V47.0246C89.5616 47.6431 89.421 48.1461 89.1398 48.5335C88.8618 48.9241 88.4869 49.2099 88.0151 49.3911C87.5465 49.5754 87.0247 49.6676 86.4499 49.6676ZM86.4124 45.7124C86.856 45.7124 87.2309 45.6109 87.5371 45.4078C87.8433 45.2047 88.076 44.9126 88.2354 44.5315C88.3947 44.1503 88.4744 43.6942 88.4744 43.1631C88.4744 42.6445 88.3963 42.1868 88.24 41.79C88.0838 41.3932 87.8527 41.0824 87.5465 40.8574C87.2403 40.6325 86.8623 40.52 86.4124 40.52C85.9438 40.52 85.5533 40.6387 85.2408 40.8762C84.9316 41.1136 84.6988 41.4323 84.5426 41.8322C84.3895 42.2321 84.313 42.6757 84.313 43.1631C84.313 43.6629 84.3911 44.105 84.5473 44.4893C84.7066 44.8704 84.9409 45.1704 85.2502 45.3891C85.5626 45.6046 85.95 45.7124 86.4124 45.7124ZM93.7042 46.9871C93.2481 46.9871 92.8341 46.9011 92.4624 46.7293C92.0906 46.5544 91.7954 46.3029 91.5767 45.9748C91.358 45.6437 91.2486 45.2438 91.2486 44.7752C91.2486 44.3628 91.3299 44.0285 91.4923 43.7723C91.6548 43.513 91.8719 43.3099 92.1437 43.1631C92.4155 43.0162 92.7154 42.9069 93.0435 42.835C93.3746 42.7601 93.7073 42.7007 94.0416 42.657C94.479 42.6007 94.8336 42.5586 95.1054 42.5304C95.3803 42.4992 95.5803 42.4476 95.7053 42.3758C95.8333 42.3039 95.8974 42.179 95.8974 42.0009V41.9634C95.8974 41.501 95.7709 41.1417 95.5178 40.8856C95.2679 40.6294 94.8883 40.5013 94.379 40.5013C93.8511 40.5013 93.4371 40.6169 93.1372 40.8481C92.8373 41.0793 92.6264 41.3261 92.5045 41.5885L91.4548 41.2136C91.6423 40.7762 91.8922 40.4357 92.2046 40.192C92.5202 39.9452 92.8638 39.7734 93.2356 39.6765C93.6105 39.5765 93.9791 39.5265 94.3416 39.5265C94.5727 39.5265 94.8383 39.5547 95.1382 39.6109C95.4413 39.664 95.7334 39.7749 96.0145 39.9436C96.2988 40.1123 96.5347 40.3669 96.7222 40.7075C96.9096 41.048 97.0033 41.5041 97.0033 42.0759V46.8184H95.8974V45.8436H95.8412C95.7662 45.9998 95.6412 46.167 95.4663 46.345C95.2913 46.5231 95.0586 46.6746 94.768 46.7996C94.4775 46.9246 94.1229 46.9871 93.7042 46.9871ZM93.8729 45.9936C94.3103 45.9936 94.679 45.9077 94.9789 45.7358C95.2819 45.564 95.51 45.3422 95.6631 45.0704C95.8193 44.7986 95.8974 44.5127 95.8974 44.2128V43.2006C95.8505 43.2568 95.7474 43.3084 95.5881 43.3552C95.4319 43.399 95.2507 43.438 95.0445 43.4724C94.8414 43.5036 94.643 43.5317 94.4493 43.5567C94.2588 43.5786 94.1041 43.5973 93.9854 43.613C93.698 43.6504 93.4293 43.7114 93.1794 43.7957C92.9326 43.877 92.7326 44.0004 92.5795 44.1659C92.4296 44.3284 92.3546 44.5502 92.3546 44.8314C92.3546 45.2157 92.4967 45.5062 92.781 45.703C93.0685 45.8967 93.4324 45.9936 93.8729 45.9936ZM101.927 49.6676C101.393 49.6676 100.934 49.5989 100.55 49.4614C100.165 49.3271 99.8452 49.149 99.589 48.9272C99.3359 48.7085 99.1344 48.4742 98.9845 48.2242L99.8655 47.6057C99.9655 47.7369 100.092 47.8868 100.245 48.0555C100.398 48.2274 100.607 48.3758 100.873 48.5007C101.142 48.6288 101.493 48.6929 101.927 48.6929C102.509 48.6929 102.988 48.5523 103.366 48.2711C103.744 47.9899 103.933 47.5494 103.933 46.9496V45.4875H103.839C103.758 45.6187 103.643 45.7811 103.493 45.9748C103.346 46.1654 103.133 46.3357 102.855 46.4856C102.58 46.6325 102.209 46.7059 101.74 46.7059C101.159 46.7059 100.637 46.5684 100.175 46.2935C99.7155 46.0186 99.3516 45.6187 99.0829 45.0938C98.8173 44.569 98.6845 43.9316 98.6845 43.1818C98.6845 42.4445 98.8142 41.8025 99.0735 41.2558C99.3328 40.7059 99.6937 40.281 100.156 39.9811C100.618 39.6781 101.153 39.5265 101.759 39.5265C102.227 39.5265 102.599 39.6046 102.874 39.7609C103.152 39.9139 103.365 40.0889 103.511 40.2857C103.661 40.4794 103.777 40.6387 103.858 40.7637H103.971V39.6203H105.039V47.0246C105.039 47.6431 104.899 48.1461 104.617 48.5335C104.339 48.9241 103.964 49.2099 103.493 49.3911C103.024 49.5754 102.502 49.6676 101.927 49.6676ZM101.89 45.7124C102.334 45.7124 102.708 45.6109 103.015 45.4078C103.321 45.2047 103.554 44.9126 103.713 44.5315C103.872 44.1503 103.952 43.6942 103.952 43.1631C103.952 42.6445 103.874 42.1868 103.718 41.79C103.561 41.3932 103.33 41.0824 103.024 40.8574C102.718 40.6325 102.34 40.52 101.89 40.52C101.421 40.52 101.031 40.6387 100.718 40.8762C100.409 41.1136 100.176 41.4323 100.02 41.8322C99.867 42.2321 99.7905 42.6757 99.7905 43.1631C99.7905 43.6629 99.8686 44.105 100.025 44.4893C100.184 44.8704 100.418 45.1704 100.728 45.3891C101.04 45.6046 101.428 45.7124 101.89 45.7124ZM110.082 46.9683C109.388 46.9683 108.79 46.8152 108.287 46.5091C107.787 46.1998 107.401 45.7686 107.129 45.2157C106.86 44.6596 106.726 44.0129 106.726 43.2755C106.726 42.5382 106.86 41.8884 107.129 41.3261C107.401 40.7606 107.779 40.3201 108.263 40.0045C108.751 39.6859 109.319 39.5265 109.969 39.5265C110.344 39.5265 110.714 39.589 111.08 39.714C111.445 39.839 111.778 40.042 112.078 40.3232C112.378 40.6013 112.617 40.9699 112.795 41.4292C112.973 41.8884 113.062 42.4539 113.062 43.1256V43.5942H107.513V42.6382H111.937C111.937 42.2321 111.856 41.8697 111.694 41.551C111.534 41.2323 111.306 40.9808 111.009 40.7965C110.716 40.6122 110.369 40.52 109.969 40.52C109.529 40.52 109.147 40.6294 108.826 40.8481C108.507 41.0636 108.262 41.3448 108.09 41.6916C107.918 42.0384 107.832 42.4102 107.832 42.8069V43.4443C107.832 43.9879 107.926 44.4487 108.113 44.8267C108.304 45.2016 108.568 45.4875 108.905 45.6843C109.243 45.878 109.635 45.9748 110.082 45.9748C110.372 45.9748 110.634 45.9342 110.869 45.853C111.106 45.7686 111.311 45.6437 111.483 45.4781C111.655 45.3094 111.787 45.1001 111.881 44.8501L112.95 45.1501C112.837 45.5125 112.648 45.8311 112.382 46.106C112.117 46.3779 111.789 46.5903 111.398 46.7434C111.008 46.8933 110.569 46.9683 110.082 46.9683ZM114.744 46.8184V39.6203H115.813V40.745H115.907C116.056 40.3607 116.299 40.0623 116.633 39.8499C116.967 39.6343 117.369 39.5265 117.837 39.5265C118.312 39.5265 118.707 39.6343 119.023 39.8499C119.342 40.0623 119.59 40.3607 119.768 40.745H119.843C120.027 40.3732 120.304 40.078 120.672 39.8593C121.041 39.6375 121.483 39.5265 121.999 39.5265C122.642 39.5265 123.169 39.7281 123.578 40.1311C123.987 40.531 124.192 41.1542 124.192 42.0009V46.8184H123.086V42.0009C123.086 41.4698 122.941 41.0902 122.65 40.8621C122.36 40.6341 122.017 40.52 121.624 40.52C121.118 40.52 120.726 40.6731 120.448 40.9793C120.169 41.2823 120.03 41.6666 120.03 42.1321V46.8184H118.906V41.8884C118.906 41.4792 118.773 41.1496 118.507 40.8996C118.242 40.6466 117.9 40.52 117.481 40.52C117.194 40.52 116.925 40.5966 116.675 40.7497C116.428 40.9027 116.228 41.1152 116.075 41.387C115.925 41.6557 115.85 41.9665 115.85 42.3196V46.8184H114.744ZM129.232 46.9683C128.538 46.9683 127.94 46.8152 127.437 46.5091C126.937 46.1998 126.551 45.7686 126.28 45.2157C126.011 44.6596 125.877 44.0129 125.877 43.2755C125.877 42.5382 126.011 41.8884 126.28 41.3261C126.551 40.7606 126.929 40.3201 127.414 40.0045C127.901 39.6859 128.47 39.5265 129.119 39.5265C129.494 39.5265 129.865 39.589 130.23 39.714C130.596 39.839 130.928 40.042 131.228 40.3232C131.528 40.6013 131.767 40.9699 131.945 41.4292C132.123 41.8884 132.212 42.4539 132.212 43.1256V43.5942H126.664V42.6382H131.088C131.088 42.2321 131.006 41.8697 130.844 41.551C130.685 41.2323 130.457 40.9808 130.16 40.7965C129.866 40.6122 129.519 40.52 129.119 40.52C128.679 40.52 128.298 40.6294 127.976 40.8481C127.657 41.0636 127.412 41.3448 127.24 41.6916C127.068 42.0384 126.983 42.4102 126.983 42.8069V43.4443C126.983 43.9879 127.076 44.4487 127.264 44.8267C127.454 45.2016 127.718 45.4875 128.056 45.6843C128.393 45.878 128.785 45.9748 129.232 45.9748C129.522 45.9748 129.785 45.9342 130.019 45.853C130.257 45.7686 130.461 45.6437 130.633 45.4781C130.805 45.3094 130.938 45.1001 131.031 44.8501L132.1 45.1501C131.987 45.5125 131.798 45.8311 131.533 46.106C131.267 46.3779 130.939 46.5903 130.549 46.7434C130.158 46.8933 129.719 46.9683 129.232 46.9683ZM135.001 42.4883V46.8184H133.895V39.6203H134.963V40.745H135.057C135.226 40.3794 135.482 40.0858 135.825 39.864C136.169 39.639 136.613 39.5265 137.156 39.5265C137.644 39.5265 138.07 39.6265 138.436 39.8265C138.801 40.0233 139.086 40.3232 139.289 40.7262C139.492 41.1261 139.593 41.6322 139.593 42.2446V46.8184H138.487V42.3196C138.487 41.7541 138.34 41.3136 138.047 40.998C137.753 40.6794 137.35 40.52 136.838 40.52C136.485 40.52 136.169 40.5966 135.891 40.7497C135.616 40.9027 135.399 41.1261 135.24 41.4198C135.08 41.7135 135.001 42.0696 135.001 42.4883ZM144.745 39.6203V40.5575H141.014V39.6203H144.745ZM142.102 37.8957H143.207V44.7564C143.207 45.0688 143.253 45.3031 143.343 45.4593C143.437 45.6124 143.556 45.7155 143.7 45.7686C143.846 45.8186 144.001 45.8436 144.163 45.8436C144.285 45.8436 144.385 45.8374 144.463 45.8249C144.542 45.8093 144.604 45.7968 144.651 45.7874L144.876 46.7809C144.801 46.809 144.696 46.8371 144.562 46.8652C144.427 46.8965 144.257 46.9121 144.051 46.9121C143.739 46.9121 143.432 46.8449 143.133 46.7106C142.836 46.5762 142.589 46.3716 142.392 46.0967C142.198 45.8217 142.102 45.475 142.102 45.0563V37.8957ZM155.518 39.6203C155.462 39.1454 155.234 38.7767 154.834 38.5143C154.434 38.2519 153.944 38.1207 153.363 38.1207C152.938 38.1207 152.566 38.1894 152.247 38.3269C151.932 38.4643 151.685 38.6533 151.507 38.8939C151.332 39.1345 151.244 39.4078 151.244 39.714C151.244 39.9702 151.305 40.1904 151.427 40.3748C151.552 40.556 151.711 40.7075 151.905 40.8293C152.099 40.948 152.302 41.0465 152.514 41.1246C152.727 41.1995 152.922 41.2605 153.1 41.3073L154.075 41.5698C154.325 41.6354 154.603 41.726 154.909 41.8416C155.218 41.9571 155.514 42.1149 155.795 42.3149C156.079 42.5117 156.313 42.7647 156.498 43.074C156.682 43.3833 156.774 43.7629 156.774 44.2128C156.774 44.7314 156.638 45.2 156.367 45.6187C156.098 46.0373 155.704 46.37 155.186 46.6169C154.67 46.8637 154.044 46.9871 153.306 46.9871C152.619 46.9871 152.024 46.8762 151.521 46.6543C151.021 46.4325 150.627 46.1232 150.34 45.7265C150.056 45.3297 149.895 44.8689 149.857 44.344H151.057C151.088 44.7064 151.21 45.0063 151.423 45.2438C151.638 45.4781 151.91 45.653 152.238 45.7686C152.569 45.8811 152.925 45.9373 153.306 45.9373C153.75 45.9373 154.148 45.8655 154.501 45.7218C154.854 45.5749 155.134 45.3719 155.34 45.1126C155.546 44.8501 155.65 44.544 155.65 44.1941C155.65 43.8754 155.56 43.6161 155.382 43.4161C155.204 43.2162 154.97 43.0537 154.679 42.9288C154.389 42.8038 154.075 42.6945 153.738 42.6007L152.557 42.2633C151.807 42.0477 151.213 41.74 150.776 41.3401C150.338 40.9402 150.12 40.4169 150.12 39.7702C150.12 39.2329 150.265 38.7642 150.556 38.3644C150.849 37.9613 151.243 37.6489 151.736 37.4271C152.233 37.2022 152.788 37.0897 153.4 37.0897C154.019 37.0897 154.569 37.2006 155.05 37.4224C155.531 37.6411 155.912 37.941 156.193 38.3222C156.477 38.7033 156.627 39.136 156.643 39.6203H155.518ZM161.459 46.9683C160.784 46.9683 160.203 46.809 159.716 46.4903C159.229 46.1717 158.854 45.7327 158.591 45.1735C158.329 44.6143 158.198 43.9754 158.198 43.2568C158.198 42.5257 158.332 41.8806 158.601 41.3214C158.872 40.759 159.251 40.3201 159.735 40.0045C160.222 39.6859 160.791 39.5265 161.441 39.5265C161.947 39.5265 162.403 39.6203 162.809 39.8077C163.215 39.9952 163.548 40.2576 163.807 40.595C164.066 40.9324 164.227 41.3261 164.29 41.7759H163.184C163.099 41.4479 162.912 41.1574 162.621 40.9043C162.334 40.6481 161.947 40.52 161.459 40.52C161.028 40.52 160.65 40.6325 160.325 40.8574C160.003 41.0793 159.752 41.3932 159.571 41.7994C159.393 42.2024 159.304 42.6757 159.304 43.2193C159.304 43.7754 159.391 44.2597 159.566 44.6721C159.744 45.0844 159.994 45.4047 160.316 45.6327C160.641 45.8608 161.022 45.9748 161.459 45.9748C161.747 45.9748 162.008 45.9248 162.242 45.8249C162.476 45.7249 162.675 45.5812 162.837 45.3937C163 45.2063 163.115 44.9813 163.184 44.7189H164.29C164.227 45.1438 164.073 45.5265 163.826 45.867C163.582 46.2045 163.259 46.4731 162.856 46.6731C162.456 46.8699 161.99 46.9683 161.459 46.9683ZM168.831 46.9683C168.181 46.9683 167.611 46.8137 167.12 46.5044C166.633 46.1951 166.252 45.7624 165.977 45.2063C165.705 44.6502 165.569 44.0004 165.569 43.2568C165.569 42.507 165.705 41.8525 165.977 41.2933C166.252 40.734 166.633 40.2998 167.12 39.9905C167.611 39.6812 168.181 39.5265 168.831 39.5265C169.481 39.5265 170.049 39.6812 170.537 39.9905C171.027 40.2998 171.408 40.734 171.68 41.2933C171.955 41.8525 172.092 42.507 172.092 43.2568C172.092 44.0004 171.955 44.6502 171.68 45.2063C171.408 45.7624 171.027 46.1951 170.537 46.5044C170.049 46.8137 169.481 46.9683 168.831 46.9683ZM168.831 45.9748C169.324 45.9748 169.731 45.8483 170.049 45.5952C170.368 45.3422 170.604 45.0095 170.757 44.5971C170.91 44.1847 170.986 43.7379 170.986 43.2568C170.986 42.7757 170.91 42.3274 170.757 41.9118C170.604 41.4963 170.368 41.1605 170.049 40.9043C169.731 40.6481 169.324 40.52 168.831 40.52C168.337 40.52 167.931 40.6481 167.612 40.9043C167.294 41.1605 167.058 41.4963 166.905 41.9118C166.752 42.3274 166.675 42.7757 166.675 43.2568C166.675 43.7379 166.752 44.1847 166.905 44.5971C167.058 45.0095 167.294 45.3422 167.612 45.5952C167.931 45.8483 168.337 45.9748 168.831 45.9748ZM173.781 46.8184V39.6203H174.849V40.7075H174.924C175.055 40.3513 175.293 40.0623 175.636 39.8405C175.98 39.6187 176.367 39.5078 176.799 39.5078C176.88 39.5078 176.981 39.5094 177.103 39.5125C177.225 39.5156 177.317 39.5203 177.38 39.5265V40.6512C177.342 40.6419 177.256 40.6278 177.122 40.6091C176.991 40.5872 176.852 40.5763 176.705 40.5763C176.355 40.5763 176.043 40.6497 175.768 40.7965C175.496 40.9402 175.28 41.1402 175.121 41.3964C174.965 41.6494 174.887 41.9384 174.887 42.2633V46.8184H173.781ZM181.49 46.9683C180.796 46.9683 180.198 46.8152 179.695 46.5091C179.195 46.1998 178.809 45.7686 178.537 45.2157C178.269 44.6596 178.134 44.0129 178.134 43.2755C178.134 42.5382 178.269 41.8884 178.537 41.3261C178.809 40.7606 179.187 40.3201 179.671 40.0045C180.159 39.6859 180.727 39.5265 181.377 39.5265C181.752 39.5265 182.122 39.589 182.488 39.714C182.853 39.839 183.186 40.042 183.486 40.3232C183.786 40.6013 184.025 40.9699 184.203 41.4292C184.381 41.8884 184.47 42.4539 184.47 43.1256V43.5942H178.921V42.6382H183.345C183.345 42.2321 183.264 41.8697 183.102 41.551C182.942 41.2323 182.714 40.9808 182.417 40.7965C182.124 40.6122 181.777 40.52 181.377 40.52C180.937 40.52 180.555 40.6294 180.234 40.8481C179.915 41.0636 179.67 41.3448 179.498 41.6916C179.326 42.0384 179.24 42.4102 179.24 42.8069V43.4443C179.24 43.9879 179.334 44.4487 179.521 44.8267C179.712 45.2016 179.976 45.4875 180.313 45.6843C180.651 45.878 181.043 45.9748 181.49 45.9748C181.78 45.9748 182.043 45.9342 182.277 45.853C182.514 45.7686 182.719 45.6437 182.891 45.4781C183.063 45.3094 183.195 45.1001 183.289 44.8501L184.358 45.1501C184.245 45.5125 184.056 45.8311 183.79 46.106C183.525 46.3779 183.197 46.5903 182.806 46.7434C182.416 46.8933 181.977 46.9683 181.49 46.9683Z" fill="#063B27"/>
<rect x="140.445" y="13.1963" width="40.5321" height="15.0817" rx="7.54086" fill="#C5E4C2"/>
<path d="M153.198 19.7834L150.814 17.3994L148.43 19.7834" stroke="#063B27" stroke-width="0.589129" stroke-miterlimit="10" stroke-linecap="round" stroke-linejoin="round"/>
<path d="M150.812 24.0749V17.4648" stroke="#063B27" stroke-width="0.589129" stroke-miterlimit="10" stroke-linecap="round" stroke-linejoin="round"/>
<path d="M160.949 25.1945C160.344 25.1945 159.828 25.0298 159.402 24.7004C158.977 24.3684 158.651 23.8877 158.426 23.2584C158.201 22.6264 158.089 21.8632 158.089 20.9688C158.089 20.0798 158.201 19.3206 158.426 18.6913C158.654 18.0593 158.981 17.5773 159.406 17.2453C159.835 16.9105 160.349 16.7432 160.949 16.7432C161.549 16.7432 162.061 16.9105 162.487 17.2453C162.916 17.5773 163.242 18.0593 163.467 18.6913C163.695 19.3206 163.809 20.0798 163.809 20.9688C163.809 21.8632 163.696 22.6264 163.471 23.2584C163.246 23.8877 162.921 24.3684 162.495 24.7004C162.07 25.0298 161.554 25.1945 160.949 25.1945ZM160.949 24.3108C161.549 24.3108 162.015 24.0216 162.347 23.4432C162.679 22.8648 162.845 22.04 162.845 20.9688C162.845 20.2565 162.768 19.65 162.616 19.1492C162.466 18.6485 162.249 18.2669 161.965 18.0044C161.684 17.742 161.345 17.6108 160.949 17.6108C160.354 17.6108 159.89 17.904 159.555 18.4905C159.22 19.0743 159.053 19.9004 159.053 20.9688C159.053 21.6811 159.128 22.2863 159.278 22.7844C159.428 23.2825 159.643 23.6614 159.925 23.9212C160.208 24.1809 160.55 24.3108 160.949 24.3108ZM165.755 25.1463C165.557 25.1463 165.387 25.0753 165.245 24.9334C165.103 24.7915 165.032 24.6214 165.032 24.4233C165.032 24.2251 165.103 24.0551 165.245 23.9131C165.387 23.7712 165.557 23.7003 165.755 23.7003C165.953 23.7003 166.123 23.7712 166.265 23.9131C166.407 24.0551 166.478 24.2251 166.478 24.4233C166.478 24.5545 166.444 24.675 166.378 24.7848C166.313 24.8946 166.226 24.983 166.116 25.0499C166.009 25.1142 165.889 25.1463 165.755 25.1463ZM167.97 23.395V22.5756L171.585 16.8556H172.18V18.1249H171.778L169.047 22.447V22.5113H173.915V23.395H167.97ZM171.842 25.082V23.1459V22.7643V16.8556H172.79V25.082H171.842Z" fill="#063B27"/>
</svg>
